<?xml version="1.0" encoding="UTF-8" standalone="no"?>
<svg
   data-v-2cb57da0=""
   version="1.0"
   width="319.5"
   height="55.799999"
   viewBox="0 0 319.5 55.799999"
   preserveAspectRatio="xMidYMid"
   color-interpolation-filters="sRGB"
   id="svg32"
   sodipodi:docname="cover.svg"
   inkscape:version="1.2 (dc2aeda, 2022-05-15)"
   inkscape:export-filename="cover.png"
   inkscape:export-xdpi="880.85999"
   inkscape:export-ydpi="880.85999"
   xmlns:inkscape="http://www.inkscape.org/namespaces/inkscape"
   xmlns:sodipodi="http://sodipodi.sourceforge.net/DTD/sodipodi-0.dtd"
   xmlns="http://www.w3.org/2000/svg"
   xmlns:svg="http://www.w3.org/2000/svg">
  <defs
     id="defs36" />
  <sodipodi:namedview
     id="namedview34"
     pagecolor="#ffffff"
     bordercolor="#666666"
     borderopacity="1.0"
     inkscape:showpageshadow="2"
     inkscape:pageopacity="0.0"
     inkscape:pagecheckerboard="0"
     inkscape:deskcolor="#d1d1d1"
     showgrid="false"
     inkscape:zoom="3.8794118"
     inkscape:cx="162.0091"
     inkscape:cy="30.030326"
     inkscape:window-width="2275"
     inkscape:window-height="1213"
     inkscape:window-x="93"
     inkscape:window-y="0"
     inkscape:window-maximized="0"
     inkscape:current-layer="svg32" />
  <g
     data-v-2cb57da0=""
     fill="#002a61"
     class="icon-text-wrapper icon-svg-group iconsvg"
     transform="translate(1.7805076,2.3619021)"
     id="g30">
    <svg
       x="0"
       y="0"
       width="68.400002"
       height="50.876202"
       class="image-svg-svg primary"
       style="overflow:visible"
       version="1.1"
       id="svg20">
      <svg
         version="1.1"
         x="0px"
         y="0px"
         viewBox="1.8 8 48.400002 36"
         xml:space="preserve"
         id="svg18"
         width="100%"
         height="100%">
                <g
   fill="#e21f20"
   id="g8">
                    <path
   d="m 1.8,30 v 2 c 0,1.6 1.3,2.9 2.9,3 -0.4,-1.3 -0.6,-2.6 -0.6,-4 0,-1.4 0.2,-2.7 0.6,-4 -1.6,0.1 -2.9,1.4 -2.9,3 z"
   id="path4" />
                    <path
   d="M 50,18.4 C 49.8,18.1 49.5,18 49.2,18 h -21 c -0.5,0 -1,0.5 -1,1 v 1 c 0,0.5 -0.5,1 -1,1 -0.5,0 -1,-0.5 -1,-1 v -1 c 0,-0.5 -0.5,-1 -1,-1 h -5 c -7.2,0 -13,5.8 -13,13 0,7.2 5.8,13 13,13 7.2,0 13,-5.8 13,-13 0,-1 -0.1,-2 -0.4,-3 h 15.4 c 0.5,0 0.9,-0.3 1,-0.8 l 2,-8 c 0,-0.3 -0.1,-0.6 -0.2,-0.8 z M 19.2,38 c -3.9,0 -7,-3.1 -7,-7 0,-3.9 3.1,-7 7,-7 3.9,0 7,3.1 7,7 0,3.9 -3.2,7 -7,7 z"
   id="path6" />
                </g>
                <g
   fill="#b60718"
   id="g16">
                    <path
   d="m 26.2,14 c 0.6,0 1,-0.4 1,-1 V 9 c 0,-0.6 -0.4,-1 -1,-1 -0.6,0 -1,0.4 -1,1 v 4 c 0,0.6 0.4,1 1,1 z"
   id="path10" />
                    <path
   d="m 29.1,14.7 c 0.1,0.1 0.3,0.1 0.4,0.1 0.4,0 0.7,-0.2 0.9,-0.6 l 1.7,-3.6 c 0.2,-0.5 0,-1.1 -0.5,-1.3 -0.5,-0.2 -1.1,0 -1.3,0.5 l -1.7,3.6 c -0.2,0.4 0,1 0.5,1.3 z"
   id="path12" />
                    <path
   d="m 21.9,14.2 c 0.2,0.4 0.5,0.6 0.9,0.6 0.1,0 0.3,0 0.4,-0.1 0.5,-0.2 0.7,-0.8 0.5,-1.3 L 22,9.7 C 21.8,9.2 21.2,9 20.7,9.2 20.2,9.4 20,10 20.2,10.5 Z"
   id="path14" />
                </g>
            </svg>
    </svg>
    <g
       transform="translate(91.400002,6.8468018)"
       id="g28">
      <g
         data-gra="path-name"
         fill-rule=""
         class="tp-name iconsvg-namesvg"
         id="g26">
        <g
           transform="scale(1.26)"
           id="g24">
          <path
             d="m 21.34,-5.32 h 2.32 V 0 H 13.03 v -5.32 h 2.16 L 12.76,-9.57 H 7.97 v 4.25 h 2.66 V 0 H 0 V -5.32 H 2.66 V -21.27 H 0 v -5.31 h 12.61 q 1.74,0.04 3.26,0.72 1.52,0.68 2.66,1.82 1.14,1.14 1.81,2.68 0.66,1.54 0.66,3.28 v 0 q 0,2.05 -0.87,3.76 -0.88,1.71 -2.32,2.89 v 0 z M 7.97,-21.27 v 6.38 h 4.52 q 1.33,0 2.26,-0.93 0.93,-0.93 0.93,-2.26 v 0 q 0,-1.33 -0.93,-2.26 -0.93,-0.93 -2.26,-0.93 v 0 z m 18.04,-5.31 h 18.61 v 7.97 H 39.3 v -2.66 h -5.31 v 5.32 h 5.31 v 5.32 h -5.31 v 5.31 h 5.31 v -2.65 h 5.32 V 0 H 26.01 v -5.32 h 2.66 v -15.95 h -2.66 z m 21,0 h 18.61 v 7.97 H 60.3 v -2.66 h -5.31 v 5.32 h 5.31 v 5.32 h -5.31 v 5.31 h 2.66 V 0 H 47.01 v -5.32 h 2.66 v -15.95 h -2.66 z m 23.66,-2.93 h 5.62 l -2.66,7.98 h -5.62 z m 26.96,15.57 v 0 q 1.1,1.1 1.71,2.57 0.61,1.46 0.61,3.13 v 0 q 0,1.71 -0.65,3.21 -0.64,1.5 -1.76,2.62 -1.12,1.12 -2.62,1.76 Q 93.42,0 91.71,0 V 0 H 78.42 v -5.32 h 2.66 v -15.95 h -2.66 v -5.31 h 13.29 q 1.59,0 3,0.61 1.4,0.6 2.45,1.65 1.04,1.04 1.65,2.45 0.61,1.4 0.61,3 v 0 q 0,1.4 -0.48,2.65 -0.47,1.26 -1.31,2.28 z m -5.92,-7.33 h -5.32 v 4.79 h 5.32 q 0.99,0 1.69,-0.7 0.7,-0.71 0.7,-1.69 v 0 q 0,-0.99 -0.7,-1.69 -0.7,-0.71 -1.69,-0.71 z m -5.32,15.95 h 5.32 q 1.21,0 2.07,-0.85 0.85,-0.86 0.85,-2.07 v 0 q 0,-1.22 -0.85,-2.07 -0.86,-0.85 -2.07,-0.85 v 0 h -5.32 z m 38.74,0 h 2.58 V 0 h -10.63 v -5.32 h 2.5 l -0.8,-2.65 h -8.2 l -0.8,2.65 h 2.51 V 0 h -10.63 v -5.32 h 2.58 l 6.38,-21.26 h 8.13 z m -12.95,-7.97 h 5.01 l -2.39,-7.98 h -0.23 z m 39.15,-3.99 h -5.32 v -1.33 q 0,-1.1 -0.78,-1.88 -0.77,-0.78 -1.88,-0.78 v 0 h -5.31 q -1.1,0 -1.88,0.78 -0.78,0.78 -0.78,1.88 v 0 10.64 q 0,1.1 0.78,1.88 0.78,0.77 1.88,0.77 v 0 h 5.31 q 1.11,0 1.88,-0.77 0.78,-0.78 0.78,-1.88 v 0 -1.33 h 5.32 v 1.33 q 0,1.67 -0.63,3.11 -0.62,1.44 -1.71,2.52 -1.08,1.09 -2.54,1.71 Q 144.99,0 143.35,0 v 0 h -5.31 q -1.67,0 -3.12,-0.63 -1.44,-0.62 -2.52,-1.71 -1.08,-1.08 -1.71,-2.52 -0.63,-1.44 -0.63,-3.11 v 0 -10.64 q 0,-1.63 0.63,-3.09 0.63,-1.46 1.71,-2.55 1.08,-1.08 2.52,-1.71 1.45,-0.62 3.12,-0.62 v 0 h 5.31 q 1.64,0 3.1,0.62 1.46,0.63 2.54,1.71 1.09,1.09 1.71,2.55 0.63,1.46 0.63,3.09 v 0 z m 24.42,-3.99 -6.42,6.23 5.81,9.72 h 2.51 V 0 h -10.64 v -5.32 h 1.94 l -3.53,-5.92 -3.99,3.87 v 2.05 h 2.66 V 0 h -10.63 v -5.32 h 2.65 v -15.95 h -2.65 v -5.31 h 10.36 v 5.31 h -2.39 v 6.5 l 6.68,-6.5 h -1.36 v -5.31 h 10.9 v 5.31 z"
             transform="translate(0,29.51)"
             id="path22" />
        </g>
      </g>
    </g>
  </g>
</svg>
