<?xml version="1.0" encoding="UTF-8" standalone="no"?>
<svg
   height="74.999992"
   viewBox="0 0 74.999992 74.999992"
   width="74.999992"
   version="1.1"
   id="svg10"
   sodipodi:docname="icon.svg"
   inkscape:version="1.2 (dc2aeda, 2022-05-15)"
   inkscape:export-filename="icons/24x24.png"
   inkscape:export-xdpi="30.719999"
   inkscape:export-ydpi="30.719999"
   xmlns:inkscape="http://www.inkscape.org/namespaces/inkscape"
   xmlns:sodipodi="http://sodipodi.sourceforge.net/DTD/sodipodi-0.dtd"
   xmlns:xlink="http://www.w3.org/1999/xlink"
   xmlns="http://www.w3.org/2000/svg"
   xmlns:svg="http://www.w3.org/2000/svg">
  <defs
     id="defs14">
    <linearGradient
       inkscape:collect="always"
       id="linearGradient2957">
      <stop
         style="stop-color:#000000;stop-opacity:0;"
         offset="0.92546582"
         id="stop2955" />
      <stop
         style="stop-color:#000000;stop-opacity:1;"
         offset="1"
         id="stop2953" />
    </linearGradient>
    <linearGradient
       id="linearGradient2925"
       inkscape:swatch="solid">
      <stop
         style="stop-color:#000000;stop-opacity:1;"
         offset="0"
         id="stop2923" />
    </linearGradient>
    <radialGradient
       inkscape:collect="always"
       xlink:href="#linearGradient2957"
       id="radialGradient2959"
       cx="643.22992"
       cy="-689.69684"
       fx="643.22992"
       fy="-689.69684"
       r="175.56982"
       gradientUnits="userSpaceOnUse"
       gradientTransform="matrix(0.99847361,0,0,0.99847399,-7.7620122,-10.390905)" />
  </defs>
  <sodipodi:namedview
     id="namedview12"
     pagecolor="#ffffff"
     bordercolor="#666666"
     borderopacity="1.0"
     inkscape:showpageshadow="2"
     inkscape:pageopacity="0.0"
     inkscape:pagecheckerboard="0"
     inkscape:deskcolor="#d1d1d1"
     showgrid="false"
     inkscape:zoom="4.6066917"
     inkscape:cx="-14.761135"
     inkscape:cy="61.215297"
     inkscape:window-width="2178"
     inkscape:window-height="1188"
     inkscape:window-x="0"
     inkscape:window-y="0"
     inkscape:window-maximized="0"
     inkscape:current-layer="g8" />
  <g
     stroke-width="3.38748"
     transform="matrix(0.19680337,0,0,-0.19680337,-87.369051,175.07262)"
     id="g8">
    <g
       id="g176"
       transform="matrix(0.99847364,0,0,0.99847459,-25.001328,-43.704914)">
      <path
         d="m 523.227,735.613 c -0.754,48.09 20.289,95.258 63.98,96.766 40.324,1.398 51.633,-32.492 64.602,-50.231 5.23,-7.144 10.703,-13.363 17.332,-14.117 8.703,-0.996 14.73,9.879 9.8,23.633 -3.101,8.652 -11.39,31.856 -13.925,42.984 -2.325,10.207 -3.391,20.766 -0.071,28.872 -8.824,9.066 -10.769,18.726 -10.898,24.136 -0.012,0.664 0,1.266 0.027,1.793 0.156,2.805 1.547,2.625 2.766,2.035 7.914,-3.824 17.582,-4.203 31.66,-8.605 1.809,-0.57 2.523,0.457 2.867,2.809 0.399,2.742 2.399,2.406 3.285,1.902 9.95,-5.617 19.778,-14.102 20.071,-21.238 4.523,-1.274 11.304,-3.743 16.886,-8.192 0.434,-0.351 0.539,-0.949 -0.117,-1.035 -10.265,-1.348 -14.316,-6.016 -15.836,-8.141 -0.226,-0.324 -0.199,-0.859 -0.039,-1.199 2.285,-4.969 10.102,-10.902 9.891,-15.055 -0.121,-2.402 -1.168,-4.187 -1.18,-4.195 3.641,-6.488 7.117,-8.941 14.852,-19.328 2.8,-3.766 4.918,-6.801 6.242,-9.891 1.289,-3 1.82,-6.046 1.48,-9.863 0,0 13.985,-15.898 14.2,-34.801 0.195,-16.543 -9.973,-36.855 -18.153,-49.836 -10.14,-16.105 -16.094,-28.742 -18.933,-37.656 -4.27,-13.422 -7.77,-26.594 -9.149,-34.594 -1.043,-6.039 -1.254,-10.503 -0.613,-13.398 0.664,-2.973 8.172,-7.297 18.051,-10.949 1.664,-0.614 2.179,-4.106 2.183,-4.156 v -0.004 c -6.707,1.593 -25.285,6.199 -31.484,5.578 -2.336,-0.231 -4.043,-0.621 -5.453,-1.09 -2.344,-0.789 -3.852,-1.809 -6.035,-2.707 v 0.004 c -0.024,0.101 -0.657,3.355 0.297,4.625 0.382,0.519 3,2.551 4.378,4.32 2.032,2.621 4.047,6.391 5.946,11.406 -0.211,4.114 -3.121,7.942 -2.754,11.098 0.336,2.824 1.93,-2.301 5.711,-1.715 2.574,9.352 4.129,20.563 4.75,25.629 1.758,14.219 3.953,24.617 -0.914,25.043 -17.606,1.531 -24.899,-25.547 -28.391,-39.637 -3.277,-13.211 -4.664,-20.718 -4.519,-25.277 0.097,-3.027 0.863,-4.762 2.183,-5.996 3.078,-2.879 6.055,-4.516 6.918,-5.52 0.613,-0.715 1.442,-3.504 1.563,-5.066 -0.067,0.043 -4.317,2.437 -11.422,3.051 -4.778,0.41 -10.91,0.269 -16.637,-0.7 -6.383,-1.074 -14.84,-2.976 -14.84,-2.976 0,0 0.203,3.465 1.317,4.016 4.531,2.226 9.257,4.261 13.25,7.445 4.324,3.449 6.386,7.953 7.3,9.773 -0.129,4.176 -3.547,7.879 -2.605,11.489 0.383,1.445 2.601,-3.372 5.973,-2.231 v 0.004 c 3.8,16.668 3.953,32.906 -0.379,45.648 -2.789,8.196 -5.434,12.106 -8.719,14.172 -2.02,1.278 -4.594,2.352 -8.125,0.418 -3.168,-1.746 -8.766,-8.187 -9.547,-9.05 -11.441,-12.567 -32.18,-16.407 -42.699,-8.844 0,0 -0.004,0 -0.008,0.004 8.754,-8.461 18.109,-11.828 18.109,-11.828 0,0 -10.839,-9.836 -27.957,-6.313 -3.816,0.785 -12.531,3.074 -22.98,9.082 1.543,-3.191 3.644,-6.187 6.14,-8.605 4.879,-4.727 7.711,-5.364 7.711,-5.364 -41.171,0 -56.882,52.582 -57.339,81.668"
         fill="#ee2628"
         id="path2" />
      <path
         d="m 652.629,700.063 c -15.238,2.875 -20.953,5.933 -26.965,9.769 -6.039,3.856 -12.844,5.684 -19.816,5.398 11.179,11.79 26.457,6.102 26.824,5.922 -6.367,3.125 -12.332,6.625 -21.676,5.598 -10.281,-1.133 -14.519,-9.027 -13.672,-15.34 2.395,-17.812 30.981,-10.426 30.981,-10.426 0,0 -10.176,-13.257 -26.117,-10.652 -5.833,0.949 -9.793,3.684 -12.293,7.172 v -0.016 c 5.152,-7.906 12.863,-12.742 26.257,-12.504 12.875,0.227 18.149,5.559 27.164,11.829 2.75,1.906 6.325,3.417 9.313,3.25 m -83.348,67.73 c -15.136,-7.633 -31.836,-28.504 -26.199,-62.273 0.547,-3.297 1.516,-6.54 2.727,-9.723 0.117,-0.262 0.218,-0.531 0.328,-0.801 0,0 -14.348,18.578 -10.645,56.695 3.375,34.711 20.051,63.325 52.656,65.153 31.969,1.793 46.723,-30.442 46.723,-30.442 0,0 -17.558,25.27 -49.18,19.899 -19.914,-3.383 -30.437,-22.531 -34.472,-38.168 8.265,12.863 20.441,20.98 34.09,22.172 28.425,2.48 42.886,-16.825 56.765,-26.489 18.047,-12.558 36.387,-8.097 43.528,-1.921 -1.379,-4.52 -12.457,-17.34 -30.946,-20.473 -5.883,-0.996 -13.847,-1.152 -24.75,0.109 -19.25,2.219 -46.144,5.012 -57.113,-17.687 -10.984,-22.711 5.473,-48.153 28,-56.313 -26.023,3.403 -45.398,26.828 -42.695,54.684 3.843,39.515 43.004,38.801 63.867,30.933 9.906,-3.726 24.152,-5.582 30.144,-2.617 0,0 -14.597,0.157 -30.16,10.914 -13.902,9.614 -31.469,17.039 -52.668,6.348 m 71.379,-49.129 c 0,0 26.453,-13.461 57.203,-6.101 41.047,9.808 35.094,53.23 23.203,59.324 16.782,-0.938 29.86,-37.371 8.301,-58.977 -21.48,-21.523 -58.004,-13.297 -75.383,-2.629 -8.484,5.207 -13.324,8.383 -13.324,8.383 m 40.653,107.922 c 1.386,-8.414 4.214,-12.082 16.917,-24.113 10.688,-10.125 12.243,-20.407 9.852,-26.934 5.93,14.184 3.047,26.57 -7.117,40.551 -8.391,11.551 -10.332,19.656 -10.086,26.762 -3.828,-0.641 -7.074,-0.09 -8.938,0.503 -0.011,0 -0.015,0.004 -0.019,0.008 -0.633,-0.691 -10.059,-11.316 -5.422,-29.453 2.191,-8.558 4.813,-14.961 5,-15.535 v -0.008 c 6.492,-17.004 4.652,-25.496 0.957,-29.828 16.563,5.149 15.008,23.559 6.648,36.953 -7.226,11.586 -7.718,14.973 -7.792,21.094 m 45.66,-40.992 c 0.797,17.449 -9.868,21.113 -13.141,31.226 7.426,-8.195 15.992,-12.125 20.57,-19.718 9.176,-15.231 5.844,-25.282 5.844,-25.282 -3.242,9.149 -13.273,13.774 -13.273,13.774 m -60.782,-62.485 c -18.914,3.114 -26.097,8.715 -44.074,8.805 11.125,1.301 18.715,0.598 28.125,-0.125 15.918,-1.223 32.629,1.258 43.653,7.774 10.3,6.097 15.523,15.828 13.777,26.406 19.898,-22.461 -2.91,-49.211 -41.481,-42.86 m 25.727,138.493 c -0.293,-1.957 1.309,-3.813 3.59,-4.145 2.273,-0.332 4.351,0.981 4.64,2.941 0.102,0.606 -0.015,1.196 -0.246,1.739 0,0 0.973,-0.211 1.739,-0.508 l -0.719,1.34 c -2.086,1.179 -4.344,1.75 -5.219,1.871 -4.691,0.691 -6.504,-2.274 -6.504,-2.274 1.125,0.239 3.094,0.313 3.223,0.317 -0.254,-0.379 -0.438,-0.813 -0.504,-1.281 m -11.309,8.984 c -7.355,-4.172 -9.902,-11.012 -7.371,-18.109 0.934,-2.625 2.207,-4.688 3.821,-6.247 -7.836,6.028 -14.621,19.254 -4.692,26.286 4.391,3.105 8.77,3.882 13.918,4.058 9.875,0.348 19.528,-5.566 24.156,-9.308 -5.695,4.047 -22.097,7.699 -29.832,3.32"
         fill="#ba151b"
         id="path4" />
    </g>
    <ellipse
       style="fill:none;fill-rule:evenodd;stroke:url(#radialGradient2959);stroke-width:27.43855453;stroke-dasharray:none;stroke-opacity:1"
       id="path230"
       cx="634.48627"
       cy="-699.03589"
       transform="scale(1,-1)"
       rx="168.23209"
       ry="168.23218" />
  </g>
</svg>
